<svg xmlns="http://www.w3.org/2000/svg" width="136" height="51" viewBox="0 0 136 51">
  <g fill="white" fill-rule="evenodd">
    <path fill="white" d="M16.4673394,44.494382 C16.2747379,44.5425364 16.1062142,44.5666132 15.9617631,44.5666132 L15.3117366,44.5666132 C13.5783238,44.5666132 12.0254981,44.4462291 10.653213,44.2054575 C9.28092782,43.9646858 8.1132992,43.4831497 7.15029209,42.7608347 C6.18728497,42.0385197 5.44096565,41.0152554 4.91131174,39.6910112 C4.38165782,38.3667671 4.11683484,36.5971218 4.11683484,34.3820225 L4.11683484,20.4414125 L0,20.4414125 L0,14.0850722 L4.11683484,14.0850722 L4.11683484,0 L10.9782262,0 L10.9782262,14.0850722 L16.3951142,14.0850722 L16.3951142,20.4414125 L10.9782262,20.4414125 L10.9782262,34.1653291 C10.9782262,35.7544221 11.3032363,36.8017631 11.9532661,37.3073836 C12.6032959,37.8130041 13.6987,38.0658106 15.2395114,38.0658106 L15.9617631,38.0658106 C16.1543646,38.0658106 16.3228883,38.0417338 16.4673394,37.9935795 L16.4673394,44.494382 Z M42.8295273,44.1332263 L42.8295273,40.5216693 C42.0109713,41.773682 40.8674175,42.8330615 39.3988317,43.6998395 C37.9302458,44.5666175 36.2329712,45 34.306957,45 C30.6956803,45 27.9511512,44.0489662 26.0732873,42.14687 C24.1954234,40.2447738 23.2565056,37.4157491 23.2565056,33.6597111 L23.2565056,14.0850722 L30.117897,14.0850722 L30.117897,32.3595506 C30.117897,34.0449522 30.5993933,35.5136374 31.5624004,36.7656501 C32.5254075,38.0176628 33.9458217,38.6436597 35.8236856,38.6436597 C37.0274445,38.6436597 38.0626616,38.3788148 38.929368,37.8491172 C39.7960744,37.3194195 40.5183189,36.6452689 41.0961232,35.8266453 C41.6739275,35.0080216 42.1072742,34.1051414 42.3961763,33.1179775 C42.6850784,32.1308137 42.8295273,31.1797799 42.8295273,30.2648475 L42.8295273,14.0850722 L49.6909187,14.0850722 L49.6909187,44.1332263 L42.8295273,44.1332263 Z M72.1529474,44.494382 C71.960346,44.5425364 71.7918223,44.5666132 71.6473712,44.5666132 L70.9973447,44.5666132 C69.2639319,44.5666132 67.7111062,44.4462291 66.338821,44.2054575 C64.9665359,43.9646858 63.7989073,43.4831497 62.8359002,42.7608347 C61.872893,42.0385197 61.1265737,41.0152554 60.5969198,39.6910112 C60.0672659,38.3667671 59.8024429,36.5971218 59.8024429,34.3820225 L59.8024429,20.4414125 L55.6856081,20.4414125 L55.6856081,14.0850722 L59.8024429,14.0850722 L59.8024429,0 L66.6638343,0 L66.6638343,14.0850722 L72.0807223,14.0850722 L72.0807223,20.4414125 L66.6638343,20.4414125 L66.6638343,34.1653291 C66.6638343,35.7544221 66.9888443,36.8017631 67.6388741,37.3073836 C68.2889039,37.8130041 69.3843081,38.0658106 70.9251195,38.0658106 L71.6473712,38.0658106 C71.8399726,38.0658106 72.0084964,38.0417338 72.1529474,37.9935795 L72.1529474,44.494382 Z M132.894318,21.2359551 C132.075762,20.658103 131.317405,20.2608358 130.619225,20.0441413 C129.921044,19.8274467 129.234912,19.7191011 128.560807,19.7191011 C126.634793,19.7191011 125.057892,20.5256741 123.830058,22.1388443 C122.602224,23.7520145 121.988317,26.0031958 121.988317,28.8924559 L121.988317,44.1332263 L115.126925,44.1332263 L115.126925,14.0850722 L121.988317,14.0850722 L121.988317,17.6966292 C124.155083,14.7110605 126.851462,13.2182986 130.077536,13.2182986 C131.281295,13.2182986 132.328549,13.3988746 133.219331,13.7600321 C134.110112,14.1211896 135.036993,14.6869945 136,15.4574639 L132.894318,21.2359551 Z" style="mix-blend-mode:difference"/>
    <g stroke="white" stroke-linecap="square" stroke-width="2" transform="translate(79 5)">
      <path d="M14 45L14 0M8 35L8 10M1 27L1 17M28 27L28 17M21 35L21 10"/>
    </g>
  </g>
</svg>
